# xmcd
#
# Track frame offsets:
#	150
#	15324
#	36839
#	52891
#	70235
#	89413
#	106487
#	125283
#	142625
#	161419
#	177044
#	193746
#
# Disc length: 2803 seconds
#
# Revision: 1
# Processed by: cddbd v1.5.2PL0 Copyright (c) Steve Scherf et al.
# Submitted via: audiograbber 1.83.01
#
DISCID=900af10c
DTITLE=Wood Brothers - Loaded
DYEAR=2008
DGENRE=Blues
TTITLE0=Lovin' Arms
TTITLE1=Postcards from Hell
TTITLE2=Pray Enough
TTITLE3=Loaded
TTITLE4=Walk Away
TTITLE5=Don't Look Back - (feat. Frazey Ford)
TTITLE6=Twisted
TTITLE7=Fall Too Fast
TTITLE8=Angel - (feat. Amos Lee)
TTITLE9=Buckets of Rain
TTITLE10=Make Me Down a Pallet on Your Floor
TTITLE11=Still Close
EXTD=
EXTT0=
EXTT1=
EXTT2=
EXTT3=
EXTT4=
EXTT5=
EXTT6=
EXTT7=
EXTT8=
EXTT9=
EXTT10=
EXTT11=
PLAYORDER=
